<?xml version="1.0" encoding="utf-8"?>
<!-- Generator: Adobe Illustrator 26.0.3, SVG Export Plug-In . SVG Version: 6.00 Build 0)  -->
<svg version="1.1" xmlns="http://www.w3.org/2000/svg" xmlns:xlink="http://www.w3.org/1999/xlink" x="0px" y="0px"
	 viewBox="0 0 2000 2000" style="enable-background:new 0 0 2000 2000;" xml:space="preserve">
<style type="text/css">
	.st0{fill:#FFFFFF;}
</style>
<g id="katman_1">
	<g>
		<g>
			<path class="st0" d="M0-3c666.67,0,1333.33,0,2000,0c0,666.67,0,1333.33,0,2000c-666.67,0-1333.33,0-2000,0
				C0,1330.33,0,663.67,0-3z M975.65,328.89c0,219.76,0,438.8,0,657.87c-11.62,0-22.89,0-34.7,0c0-38.62,0-77.01,0-115.39
				c-18.6,0-36.65,0-54.69,0c0,56.96,0,113.56,0,170.32c48.3,0,96.35,0,144.93,0c0-237.68,0-475.06,0-712.8
				c64.47,0,128.4,0,192.51,0c0-18.09,0-35.81,0-53.53c-145.68,0-291.06,0-436.45,0c0,17.96,0,35.56,0,53.53
				C850.09,328.89,912.69,328.89,975.65,328.89z M787.36,342.23c0,172.1,0,343.81,0,515.52c17.96,0,35.56,0,53.71,0
				c0-68.29,0-136.34,0-204.38c15.27,0,29.99,0,45.07,0c0,68.3,0,136.23,0,204.32c18.42,0,36.47,0,54.49,0
				c0-86.69,0-173.07,0-259.82c-33.31,0-66.24,0-99.32,0c0-3.09,0-5.81,0-9.06c33.36,0,66.42,0,99.43,0c0-82.48,0-164.41,0-246.57
				C889.56,342.23,838.63,342.23,787.36,342.23z M1067.36,342.24c0,172.09,0,343.8,0,515.51c18.29,0,36.23,0,54.7,0
				c0-89.63,0-179.01,0-268.94c34.26,0,67.98,0,101.69,0c0-82.48,0-164.41,0-246.58C1171.57,342.24,1119.64,342.24,1067.36,342.24z
				 M1121.64,1041.78c0-57.14,0-113.84,0-170.55c-18.29,0-36.22,0-54.37,0c0,56.94,0,113.63,0,170.55
				C1085.47,1041.78,1103.4,1041.78,1121.64,1041.78z M1223.28,719.71c0-18.22,0-36.07,0-53.94c-18.28,0-36.15,0-54,0
				c0,18.18,0,35.94,0,53.94C1187.3,719.71,1205.06,719.71,1223.28,719.71z M1192.71,642.05c-0.15-0.37-0.3-0.74-0.44-1.11
				c9.44-7.87,18.88-15.73,28.3-23.62c1.24-1.04,3.05-1.83,3.04-3.73c-0.03-4.92,0.56-9.88-0.38-14.87c-18.18,0-36.06,0-53.91,0
				c0,5.46,0,10.54,0,15.77c6.03,0,11.75,0,17.22,0c1.19-1.71-0.11-3.73,1.48-4.88c5.66,0,11.24,0,16.72,0
				c1.36,3.16-1.02,4.15-2.59,5.43c-9.14,7.49-17.99,15.39-27.61,22.22c-6.09,4.32-6.1,9.36-5.14,15.3c18.2,0,36.07,0,54.08,0
				c0.17-3.66,0.62-6.92-0.4-10.51C1212.89,642.05,1202.8,642.05,1192.71,642.05z M1223.68,734.73c-18.65,0-36.52,0-54.36,0
				c0,5.47,0,10.55,0,15.75c6.03,0,11.75,0,17.55,0c0.23-1.77,0.42-3.21,0.64-4.86c5.91,0,11.61,0,17.23,0
				c1.33,3.17-1.06,4.15-2.62,5.44c-9.14,7.49-17.99,15.39-27.61,22.22c-6.09,4.33-6.12,9.36-5.11,15.27c18.2,0,36.07,0,54.07,0
				c0.15-3.67,0.64-6.93-0.51-10.75c-10.18,0-20.36,0-31.75,0c10.48-8.74,19.93-16.61,29.36-24.49c1.5-1.26,3.21-2.3,3.13-4.75
				C1223.59,744.11,1223.68,739.63,1223.68,734.73z M1223.24,846.96c-10.33,0-20.51,0-30.96,0c0.83-2.31,2.43-3.01,3.65-4.03
				c8.28-6.97,16.61-13.87,24.9-20.82c1.24-1.04,2.84-1.87,2.84-3.85c0-4.77,0-9.54,0-14.59c-18.49,0-36.37,0-54.41,0
				c0,5.4,0,10.48,0,15.86c5.98,0,11.72,0,17.26,0c1.23-1.6-0.03-3.59,1.31-4.78c5.84,0,11.52,0,17.04,0c1.01,3.07-1.13,4-2.59,5.2
				c-9.01,7.38-17.77,15.13-27.21,21.92c-5.96,4.29-7.16,9.22-5.56,15.76c17.97,0,35.84,0,53.93,0
				C1223.76,854.04,1223.93,850.79,1223.24,846.96z"/>
			<path d="M975.65,328.89c-62.96,0-125.55,0-188.4,0c0-17.97,0-35.57,0-53.53c145.38,0,290.76,0,436.45,0c0,17.72,0,35.44,0,53.53
				c-64.11,0-128.05,0-192.51,0c0,237.74,0,475.12,0,712.8c-48.58,0-96.63,0-144.93,0c0-56.76,0-113.36,0-170.32
				c18.04,0,36.09,0,54.69,0c0,38.38,0,76.77,0,115.39c11.81,0,23.08,0,34.7,0C975.65,767.69,975.65,548.66,975.65,328.89z"/>
			<path d="M787.36,342.23c51.27,0,102.2,0,153.38,0c0,82.16,0,164.09,0,246.57c-33.02,0-66.07,0-99.43,0c0,3.26,0,5.97,0,9.06
				c33.07,0,66.01,0,99.32,0c0,86.75,0,173.13,0,259.82c-18.02,0-36.07,0-54.49,0c0-68.09,0-136.02,0-204.32
				c-15.08,0-29.8,0-45.07,0c0,68.04,0,136.09,0,204.38c-18.14,0-35.74,0-53.71,0C787.36,686.04,787.36,514.34,787.36,342.23z
				 M841.22,533.64c15.11,0,29.83,0,44.39,0c0-45.73,0-91.09,0-136.37c-14.99,0-29.59,0-44.39,0
				C841.22,442.79,841.22,488.04,841.22,533.64z"/>
			<path d="M1067.36,342.24c52.28,0,104.21,0,156.39,0c0,82.17,0,164.1,0,246.58c-33.7,0-67.42,0-101.69,0
				c0,89.93,0,179.31,0,268.94c-18.48,0-36.41,0-54.7,0C1067.36,686.04,1067.36,514.33,1067.36,342.24z M1122.36,397.22
				c0,45.79,0,91.15,0,136.37c15.74,0,31.12,0,46.38,0c0-45.66,0-90.9,0-136.37C1153.21,397.22,1137.95,397.22,1122.36,397.22z"/>
			<path d="M1121.64,1041.78c-18.24,0-36.17,0-54.37,0c0-56.91,0-113.61,0-170.55c18.15,0,36.08,0,54.37,0
				C1121.64,927.95,1121.64,984.65,1121.64,1041.78z"/>
			<path d="M1223.28,719.71c-18.22,0-35.98,0-54,0c0-18,0-35.76,0-53.94c17.85,0,35.72,0,54,0
				C1223.28,683.64,1223.28,701.49,1223.28,719.71z M1205.4,708.82c0-10.26,0-20.03,0-29.79c0-1.47-0.37-2.69-2.14-2.7
				c-5.24-0.03-10.49-0.01-15.74-0.01c0,11.25,0,21.78,0,32.5C1193.45,708.82,1199.03,708.82,1205.4,708.82z"/>
			<path d="M1192.71,642.05c10.09,0,20.18,0,30.37,0c1.03,3.59,0.58,6.86,0.4,10.51c-18.02,0-35.88,0-54.08,0
				c-0.96-5.93-0.94-10.97,5.14-15.3c9.61-6.83,18.47-14.73,27.61-22.22c1.56-1.28,3.95-2.27,2.59-5.43c-5.48,0-11.06,0-16.72,0
				c-1.58,1.15-0.29,3.17-1.48,4.88c-5.47,0-11.19,0-17.22,0c0-5.23,0-10.31,0-15.77c17.86,0,35.74,0,53.91,0
				c0.94,5,0.35,9.96,0.38,14.87c0.01,1.9-1.8,2.69-3.04,3.73c-9.42,7.89-18.86,15.75-28.3,23.62
				C1192.41,641.31,1192.56,641.68,1192.71,642.05z"/>
			<path d="M1223.68,734.73c0,4.9-0.1,9.38,0.04,13.84c0.08,2.45-1.63,3.49-3.13,4.75c-9.43,7.88-18.88,15.75-29.36,24.49
				c11.39,0,21.56,0,31.75,0c1.15,3.81,0.66,7.08,0.51,10.75c-18.01,0-35.87,0-54.07,0c-1.02-5.92-0.98-10.94,5.11-15.27
				c9.61-6.83,18.47-14.73,27.61-22.22c1.56-1.28,3.95-2.27,2.62-5.44c-5.62,0-11.33,0-17.23,0c-0.22,1.65-0.41,3.09-0.64,4.86
				c-5.79,0-11.51,0-17.55,0c0-5.2,0-10.28,0-15.75C1187.16,734.73,1205.04,734.73,1223.68,734.73z"/>
			<path d="M1223.24,846.96c0.69,3.83,0.52,7.08,0.2,10.66c-18.09,0-35.96,0-53.93,0c-1.6-6.53-0.41-11.46,5.56-15.76
				c9.44-6.79,18.2-14.54,27.21-21.92c1.46-1.2,3.6-2.13,2.59-5.2c-5.52,0-11.21,0-17.04,0c-1.34,1.18-0.07,3.18-1.31,4.78
				c-5.54,0-11.28,0-17.26,0c0-5.37,0-10.46,0-15.86c18.04,0,35.92,0,54.41,0c0,5.05,0,9.82,0,14.59c0,1.98-1.6,2.81-2.84,3.85
				c-8.29,6.95-16.62,13.85-24.9,20.82c-1.22,1.02-2.82,1.73-3.65,4.03C1202.73,846.96,1212.91,846.96,1223.24,846.96z"/>
			<path class="st0" d="M841.22,533.64c0-45.6,0-90.85,0-136.37c14.81,0,29.4,0,44.39,0c0,45.27,0,90.64,0,136.37
				C871.04,533.64,856.33,533.64,841.22,533.64z"/>
			<path class="st0" d="M1122.36,397.22c15.59,0,30.85,0,46.38,0c0,45.46,0,90.71,0,136.37c-15.26,0-30.64,0-46.38,0
				C1122.36,488.37,1122.36,443.01,1122.36,397.22z"/>
			<path class="st0" d="M1205.4,708.82c-6.37,0-11.95,0-17.87,0c0-10.72,0-21.24,0-32.5c5.25,0,10.49-0.02,15.74,0.01
				c1.77,0.01,2.14,1.23,2.14,2.7C1205.4,688.8,1205.4,698.56,1205.4,708.82z"/>
		</g>
	</g>
</g>
<g id="katman_2">
	<g>
		<path d="M581.46,1250.33h-27.17l-16.33-27.03c-5.29-9.29-9.66-14.67-20.95-13.18v40.21h-23.66V1145.3
			c25.3,0.51,78.47-6.9,75.73,28.57c0.35,14.26-10.15,25.71-23.58,29.22v0.29C559.8,1209.22,572.42,1238.71,581.46,1250.33z
			 M517,1163.03v29.22c12.03,0.82,26.97-0.25,27.17-15.45C544.94,1162.07,528.72,1162.6,517,1163.03z"/>
		<path d="M683.63,1250.33h-25.78l-7.47-23.36h-37.35l-7.4,23.36h-25.63l38.23-105.03h28.05L683.63,1250.33z M644.96,1208.8
			c-2-7.3-12.99-37.51-13.04-44.75h-0.59c0.01,6.39-11.46,38.1-13.26,44.75H644.96z"/>
		<path d="M782.36,1204.85c5.66,62.65-91.98,64.38-86.87,1.1c0,0,0-60.64,0-60.64h23.73v60.94c0,16.99,6.64,25.49,19.92,25.49
			c13.04,0,19.56-8.2,19.56-24.61v-61.82h23.66V1204.85z"/>
		<path d="M867.76,1250.33h-62.55V1145.3h23.66v85.84h38.89V1250.33z"/>
		<path d="M967.08,1208.66c1.81,32.53-23.84,51.47-53.39,40.65v-22.19c14.82,10.31,30.97,3.69,29.81-19.41c0,0,0-62.4,0-62.4h23.58
			V1208.66z"/>
		<path d="M998.13,1252.16c-17.65,0.28-17.37-24.88,0.37-24.17C1016.46,1227.44,1016.04,1253.02,998.13,1252.16z"/>
		<path d="M1095.76,1214.15v36.18h-23.66V1145.3c28.91,0.34,78.98-7.13,76.76,33.47C1148.98,1207.57,1121.2,1216.37,1095.76,1214.15
			z M1095.76,1163.47v32.74c13.64,0.82,28.9-0.49,28.2-16.55C1124.68,1163.9,1109.23,1162.66,1095.76,1163.47z"/>
		<path d="M1196.69,1145.3v18.31h-8.79v68.41h8.79v18.31h-41.24v-18.31h8.79v-68.41h-8.79v-18.31H1196.69z"/>
		<path d="M1306.26,1250.33h-23.88c-3.36-5.43-47.03-70.95-48.56-74.71h-0.29c1.13,9.84,0.38,63.22,0.59,74.71h-22.34V1145.3h25.49
			c3.23,5.14,45.45,69.24,46.95,72.51h0.29c-1.19-7.82-0.34-62.93-0.59-72.51h22.34V1250.33z"/>
		<path d="M1404.04,1164.57h-29.96v85.77h-23.73v-85.77h-29.81v-19.26h83.5V1164.57z"/>
		<path d="M1462.56,1252.16c-69.39,1.26-66.87-110.83,1.69-108.62C1532.66,1142.26,1530.26,1254.35,1462.56,1252.16z
			 M1463.58,1163.91c-36.11-0.96-36.49,68.38-0.59,67.82C1498.79,1233.12,1498.84,1163.08,1463.58,1163.91z"/>
	</g>
	<g>
		<path d="M703.81,1345.25h-12.89l-3.74-11.68h-18.68l-3.7,11.68h-12.82l19.12-52.51h14.03L703.81,1345.25z M684.47,1324.48
			l-5.64-17.65c-0.42-1.32-0.71-2.89-0.88-4.72h-0.29c-0.12,1.54-0.43,3.06-0.92,4.58l-5.71,17.8H684.47z"/>
		<path d="M747.24,1302.36h-14.98v42.88H720.4v-42.88h-14.9v-9.63h41.75V1302.36z"/>
		<path d="M791.19,1302.36h-14.98v42.88h-11.87v-42.88h-14.9v-9.63h41.75V1302.36z"/>
		<path d="M820.45,1346.16c-7.52,0-13.65-2.45-18.38-7.34c-4.74-4.89-7.1-11.27-7.1-19.13c0-8.3,2.4-15.01,7.21-20.14
			c4.81-5.13,11.18-7.69,19.12-7.69c7.49,0,13.56,2.45,18.18,7.36c4.63,4.91,6.94,11.38,6.94,19.41c0,8.25-2.4,14.9-7.2,19.96
			C834.42,1343.64,828.16,1346.16,820.45,1346.16z M820.96,1302.03c-4.15,0-7.45,1.56-9.89,4.67c-2.44,3.11-3.66,7.23-3.66,12.36
			c0,5.2,1.22,9.31,3.66,12.34c2.44,3.03,5.64,4.54,9.59,4.54c4.08,0,7.31-1.47,9.7-4.41c2.39-2.94,3.59-7.02,3.59-12.25
			c0-5.44-1.16-9.68-3.48-12.71C828.16,1303.55,824.99,1302.03,820.96,1302.03z"/>
		<path d="M899.18,1345.25H885.6l-8.17-13.51c-0.61-1.03-1.2-1.94-1.76-2.75c-0.56-0.81-1.13-1.5-1.7-2.07
			c-0.57-0.57-1.17-1.01-1.79-1.32c-0.62-0.3-1.3-0.46-2.03-0.46h-3.19v20.11h-11.83v-52.51h18.75c12.74,0,19.12,4.76,19.12,14.28
			c0,1.83-0.28,3.52-0.84,5.07c-0.56,1.55-1.35,2.95-2.38,4.19c-1.03,1.24-2.26,2.32-3.72,3.22c-1.45,0.9-3.07,1.61-4.85,2.12v0.15
			c0.78,0.25,1.54,0.64,2.27,1.19c0.73,0.55,1.44,1.19,2.12,1.92c0.68,0.73,1.34,1.52,1.96,2.36c0.62,0.84,1.19,1.67,1.7,2.47
			L899.18,1345.25z M866.96,1301.59v14.61h5.13c2.54,0,4.58-0.73,6.12-2.2c1.56-1.49,2.34-3.33,2.34-5.53
			c0-4.59-2.75-6.88-8.24-6.88H866.96z"/>
		<path d="M951.33,1345.25h-11.94l-21.64-33c-1.27-1.93-2.15-3.38-2.64-4.36h-0.15c0.2,1.86,0.29,4.69,0.29,8.5v28.86h-11.17v-52.51
			h12.74l20.84,31.97c0.95,1.44,1.83,2.87,2.64,4.29h0.15c-0.2-1.22-0.29-3.62-0.29-7.21v-29.04h11.17V1345.25z"/>
		<path d="M994.84,1345.25h-31.49v-52.51h30.29v9.63h-18.46v11.68h17.18v9.59h-17.18v12.01h19.67V1345.25z"/>
		<path d="M1042.85,1292.73l-17.1,33.84v18.68h-11.83v-18.46l-16.66-34.06h13.51l8.46,19.59c0.15,0.37,0.55,1.79,1.21,4.28h0.15
			c0.32-1.76,0.7-3.14,1.13-4.14l8.61-19.74H1042.85z"/>
		<path d="M1115.65,1345.25h-12.89l-3.74-11.68h-18.68l-3.7,11.68h-12.82l19.12-52.51h14.03L1115.65,1345.25z M1096.31,1324.48
			l-5.64-17.65c-0.42-1.32-0.71-2.89-0.88-4.72h-0.29c-0.12,1.54-0.43,3.06-0.92,4.58l-5.71,17.8H1096.31z"/>
		<path d="M1159.08,1302.36h-14.98v42.88h-11.87v-42.88h-14.91v-9.63h41.75V1302.36z"/>
		<path d="M1218.12,1345.25h-31.27v-52.51h11.83v42.92h19.45V1345.25z"/>
		<path d="M1271.36,1345.25h-12.89l-3.74-11.68h-18.68l-3.7,11.68h-12.82l19.12-52.51h14.03L1271.36,1345.25z M1252.03,1324.48
			l-5.64-17.65c-0.42-1.32-0.71-2.89-0.88-4.72h-0.29c-0.12,1.54-0.43,3.06-0.92,4.58l-5.71,17.8H1252.03z"/>
		<path d="M1346.62,1292.73l-13.88,52.51h-13.11l-8.71-33.69c-0.46-1.76-0.75-3.72-0.84-5.9h-0.15c-0.22,2.39-0.54,4.36-0.95,5.9
			l-8.94,33.69h-13.66l-13.81-52.51h12.93l7.4,34.97c0.32,1.49,0.55,3.49,0.7,6.01h0.22c0.1-1.88,0.45-3.93,1.06-6.15l9.52-34.83
			h12.67l8.61,35.27c0.32,1.29,0.6,3.17,0.84,5.64h0.15c0.1-1.93,0.35-3.88,0.77-5.86l7.25-35.05H1346.62z"/>
	</g>
</g>
</svg>
